<svg width="111" height="34" viewBox="0 0 111 34" fill="none" xmlns="http://www.w3.org/2000/svg">
<g filter="url(#filter0_d_0_91)">
<path d="M10.6836 26.179C9.72053 26.179 8.90021 25.9169 8.22266 25.3928C7.5451 24.8643 7.02734 24.0994 6.66939 23.098C6.31143 22.0923 6.13246 20.8778 6.13246 19.4545C6.13246 18.0398 6.31143 16.8317 6.66939 15.8303C7.03161 14.8246 7.55149 14.0575 8.22905 13.5291C8.91087 12.9964 9.72905 12.7301 10.6836 12.7301C11.6381 12.7301 12.4542 12.9964 13.1317 13.5291C13.8136 14.0575 14.3335 14.8246 14.6914 15.8303C15.0536 16.8317 15.2347 18.0398 15.2347 19.4545C15.2347 20.8778 15.0558 22.0923 14.6978 23.098C14.3398 24.0994 13.8221 24.8643 13.1445 25.3928C12.467 25.9169 11.6467 26.179 10.6836 26.179ZM10.6836 24.7727C11.6381 24.7727 12.3796 24.3125 12.908 23.392C13.4364 22.4716 13.7006 21.1591 13.7006 19.4545C13.7006 18.321 13.5792 17.3558 13.3363 16.5589C13.0977 15.7621 12.7525 15.1548 12.3008 14.7372C11.8533 14.3196 11.3143 14.1108 10.6836 14.1108C9.73757 14.1108 8.99822 14.5774 8.46555 15.5107C7.93288 16.4396 7.66655 17.7543 7.66655 19.4545C7.66655 20.5881 7.78587 21.5511 8.0245 22.3438C8.26314 23.1364 8.60618 23.7393 9.05362 24.1527C9.50533 24.5661 10.0487 24.7727 10.6836 24.7727ZM21.7546 26.179C21.0046 26.179 20.3292 26.0298 19.7283 25.7315C19.1275 25.4332 18.646 25.0241 18.2837 24.5043C17.9215 23.9844 17.7234 23.392 17.6893 22.7273H19.2234C19.283 23.3196 19.5515 23.8097 20.0288 24.1974C20.5103 24.581 21.0856 24.7727 21.7546 24.7727C22.2915 24.7727 22.7688 24.647 23.1864 24.3956C23.6083 24.1442 23.9386 23.799 24.1772 23.3601C24.4201 22.9169 24.5415 22.4162 24.5415 21.858C24.5415 21.2869 24.4158 20.7777 24.1644 20.3303C23.9173 19.8786 23.5763 19.5227 23.1417 19.2628C22.707 19.0028 22.2106 18.8707 21.6523 18.8665C21.2518 18.8622 20.8406 18.924 20.4187 19.0518C19.9968 19.1754 19.6495 19.3352 19.3768 19.5312L17.8938 19.3523L18.6864 12.9091H25.4876V14.3153H20.016L19.5558 18.1761H19.6325C19.9009 17.9631 20.2376 17.7862 20.6424 17.6456C21.0472 17.505 21.4691 17.4347 21.908 17.4347C22.7092 17.4347 23.4229 17.6264 24.0494 18.0099C24.68 18.3892 25.1744 18.9091 25.5323 19.5696C25.8945 20.2301 26.0756 20.9844 26.0756 21.8324C26.0756 22.6676 25.8881 23.4134 25.5131 24.0696C25.1424 24.7216 24.631 25.2372 23.979 25.6165C23.3271 25.9915 22.5856 26.179 21.7546 26.179ZM33.2683 12.2955L29.0495 27.9688H27.6689L31.8876 12.2955H33.2683ZM35.0309 26V24.8494L39.3519 20.1193C39.859 19.5653 40.2766 19.0838 40.6048 18.6747C40.9329 18.2614 41.1758 17.8736 41.3335 17.5114C41.4954 17.1449 41.5763 16.7614 41.5763 16.3608C41.5763 15.9006 41.4656 15.5021 41.244 15.1655C41.0266 14.8288 40.7283 14.5689 40.3491 14.3857C39.9698 14.2024 39.5437 14.1108 39.0707 14.1108C38.5678 14.1108 38.1289 14.2152 37.7539 14.424C37.3832 14.6286 37.0955 14.9162 36.891 15.2869C36.6907 15.6577 36.5906 16.0923 36.5906 16.5909H35.082C35.082 15.8239 35.2589 15.1506 35.6126 14.571C35.9663 13.9915 36.4478 13.5398 37.0572 13.2159C37.6708 12.892 38.359 12.7301 39.1218 12.7301C39.8888 12.7301 40.5685 12.892 41.1609 13.2159C41.7532 13.5398 42.2177 13.9766 42.5543 14.5263C42.891 15.076 43.0593 15.6875 43.0593 16.3608C43.0593 16.8423 42.9719 17.3132 42.7972 17.7734C42.6268 18.2294 42.3285 18.7386 41.9023 19.3011C41.4805 19.8594 40.8945 20.5412 40.1445 21.3466L37.2042 24.4915V24.5938H43.2894V26H35.0309ZM50.5316 12.9091V26H48.9464V14.571H48.8697L45.6737 16.6932V15.0824L48.9464 12.9091H50.5316Z" fill="white"/>
</g>
<g filter="url(#filter1_d_0_91)">
<path d="M59.67 25L67.8021 8.91335V8.77131H58.4271V6.81818H70.0748V8.87784L61.9782 25H59.67ZM78.8217 25.2486C77.7801 25.2486 76.842 25.0414 76.0075 24.6271C75.1729 24.2128 74.5041 23.6446 74.0011 22.9226C73.498 22.2005 73.2228 21.3778 73.1754 20.4545H75.3061C75.389 21.2772 75.7618 21.9579 76.4247 22.4964C77.0935 23.0291 77.8925 23.2955 78.8217 23.2955C79.5675 23.2955 80.2304 23.1209 80.8104 22.7717C81.3963 22.4225 81.855 21.9431 82.1864 21.3335C82.5238 20.7179 82.6925 20.0225 82.6925 19.2472C82.6925 18.4541 82.5179 17.7468 82.1687 17.1254C81.8254 16.498 81.3519 16.0038 80.7482 15.6428C80.1445 15.2817 79.455 15.0982 78.6797 15.0923C78.1233 15.0864 77.5522 15.1722 76.9663 15.3498C76.3803 15.5214 75.898 15.7434 75.5192 16.0156L73.4595 15.767L74.5604 6.81818H84.0064V8.77131H76.407L75.7678 14.1335H75.8743C76.2472 13.8376 76.7147 13.592 77.277 13.3967C77.8393 13.2013 78.4252 13.1037 79.0348 13.1037C80.1475 13.1037 81.1388 13.37 82.0089 13.9027C82.8848 14.4295 83.5714 15.1515 84.0685 16.0689C84.5716 16.9863 84.8232 18.0339 84.8232 19.2116C84.8232 20.3717 84.5627 21.4074 84.0419 22.3189C83.527 23.2244 82.8168 23.9406 81.9112 24.4673C81.0057 24.9882 79.9759 25.2486 78.8217 25.2486ZM97.6183 21.5909V20.6321C97.6183 19.9692 97.7545 19.3626 98.0267 18.8121C98.3049 18.2558 98.7074 17.8119 99.2341 17.4805C99.7668 17.1431 100.412 16.9744 101.169 16.9744C101.939 16.9744 102.584 17.1431 103.105 17.4805C103.626 17.8119 104.019 18.2558 104.286 18.8121C104.552 19.3626 104.685 19.9692 104.685 20.6321V21.5909C104.685 22.2538 104.549 22.8634 104.277 23.4197C104.01 23.9702 103.614 24.4141 103.087 24.7514C102.566 25.0829 101.927 25.2486 101.169 25.2486C100.4 25.2486 99.752 25.0829 99.2252 24.7514C98.6985 24.4141 98.299 23.9702 98.0267 23.4197C97.7545 22.8634 97.6183 22.2538 97.6183 21.5909ZM99.4294 20.6321V21.5909C99.4294 22.1413 99.5596 22.6355 99.82 23.0735C100.08 23.5056 100.53 23.7216 101.169 23.7216C101.791 23.7216 102.229 23.5056 102.483 23.0735C102.744 22.6355 102.874 22.1413 102.874 21.5909V20.6321C102.874 20.0817 102.75 19.5904 102.501 19.1584C102.253 18.7204 101.809 18.5014 101.169 18.5014C100.548 18.5014 100.101 18.7204 99.8289 19.1584C99.5626 19.5904 99.4294 20.0817 99.4294 20.6321ZM88.5629 11.1861V10.2273C88.5629 9.56439 88.6991 8.95774 88.9713 8.40731C89.2495 7.85097 89.652 7.40708 90.1787 7.07564C90.7114 6.73828 91.3565 6.5696 92.1141 6.5696C92.8835 6.5696 93.5286 6.73828 94.0494 7.07564C94.5703 7.40708 94.9639 7.85097 95.2302 8.40731C95.4965 8.95774 95.6297 9.56439 95.6297 10.2273V11.1861C95.6297 11.849 95.4936 12.4586 95.2213 13.0149C94.955 13.5653 94.5584 14.0092 94.0317 14.3466C93.5109 14.678 92.8717 14.8438 92.1141 14.8438C91.3447 14.8438 90.6966 14.678 90.1698 14.3466C89.6431 14.0092 89.2436 13.5653 88.9713 13.0149C88.6991 12.4586 88.5629 11.849 88.5629 11.1861ZM90.374 10.2273V11.1861C90.374 11.7365 90.5042 12.2307 90.7646 12.6687C91.0251 13.1007 91.4749 13.3168 92.1141 13.3168C92.7355 13.3168 93.1735 13.1007 93.428 12.6687C93.6884 12.2307 93.8186 11.7365 93.8186 11.1861V10.2273C93.8186 9.67685 93.6943 9.18561 93.4458 8.75355C93.1972 8.31558 92.7533 8.09659 92.1141 8.09659C91.4926 8.09659 91.0458 8.31558 90.7735 8.75355C90.5072 9.18561 90.374 9.67685 90.374 10.2273ZM89.2377 25L101.738 6.81818H103.762L91.2618 25H89.2377Z" fill="white"/>
</g>
<defs>
<filter id="filter0_d_0_91" x="0.132446" y="6.29546" width="56.3992" height="27.6733" filterUnits="userSpaceOnUse" color-interpolation-filters="sRGB">
<feFlood flood-opacity="0" result="BackgroundImageFix"/>
<feColorMatrix in="SourceAlpha" type="matrix" values="0 0 0 0 0 0 0 0 0 0 0 0 0 0 0 0 0 0 127 0" result="hardAlpha"/>
<feOffset/>
<feGaussianBlur stdDeviation="3"/>
<feColorMatrix type="matrix" values="0 0 0 0 0.988235 0 0 0 0 0.454902 0 0 0 0 0 0 0 0 1 0"/>
<feBlend mode="normal" in2="BackgroundImageFix" result="effect1_dropShadow_0_91"/>
<feBlend mode="normal" in="SourceGraphic" in2="effect1_dropShadow_0_91" result="shape"/>
</filter>
<filter id="filter1_d_0_91" x="52.4271" y="0.569595" width="58.258" height="30.679" filterUnits="userSpaceOnUse" color-interpolation-filters="sRGB">
<feFlood flood-opacity="0" result="BackgroundImageFix"/>
<feColorMatrix in="SourceAlpha" type="matrix" values="0 0 0 0 0 0 0 0 0 0 0 0 0 0 0 0 0 0 127 0" result="hardAlpha"/>
<feOffset/>
<feGaussianBlur stdDeviation="3"/>
<feColorMatrix type="matrix" values="0 0 0 0 0.988235 0 0 0 0 0.647059 0 0 0 0 0 0 0 0 1 0"/>
<feBlend mode="normal" in2="BackgroundImageFix" result="effect1_dropShadow_0_91"/>
<feBlend mode="normal" in="SourceGraphic" in2="effect1_dropShadow_0_91" result="shape"/>
</filter>
</defs>
</svg>
